<mxfile host="Electron" agent="Mozilla/5.0 (Macintosh; Intel Mac OS X 10_15_7) AppleWebKit/537.36 (KHTML, like Gecko) draw.io/27.0.9 Chrome/134.0.6998.205 Electron/35.4.0 Safari/537.36" version="27.0.9">
  <diagram name="Page-1" id="DN0r8R_xZXF1EVYfIKGR">
    <mxGraphModel dx="1219" dy="795" grid="1" gridSize="10" guides="1" tooltips="1" connect="1" arrows="1" fold="1" page="1" pageScale="1" pageWidth="1169" pageHeight="827" math="0" shadow="0">
      <root>
        <mxCell id="0" />
        <mxCell id="1" parent="0" />
        <mxCell id="OhPgFwXRgm67-6-ihN9R-45" value="" style="rounded=0;whiteSpace=wrap;html=1;fillColor=none;" vertex="1" parent="1">
          <mxGeometry x="10" y="10" width="1150" height="730" as="geometry" />
        </mxCell>
        <mxCell id="OhPgFwXRgm67-6-ihN9R-2" value="AWS Account" style="points=[[0,0],[0.25,0],[0.5,0],[0.75,0],[1,0],[1,0.25],[1,0.5],[1,0.75],[1,1],[0.75,1],[0.5,1],[0.25,1],[0,1],[0,0.75],[0,0.5],[0,0.25]];outlineConnect=0;gradientColor=none;html=1;whiteSpace=wrap;fontSize=12;fontStyle=0;container=1;pointerEvents=0;collapsible=0;recursiveResize=0;shape=mxgraph.aws4.group;grIcon=mxgraph.aws4.group_account;strokeColor=#CD2264;fillColor=none;verticalAlign=top;align=left;spacingLeft=30;fontColor=#CD2264;dashed=0;" vertex="1" parent="1">
          <mxGeometry x="40" y="40" width="1100" height="670" as="geometry" />
        </mxCell>
        <mxCell id="OhPgFwXRgm67-6-ihN9R-3" value="Verification Workflow" style="rounded=0;whiteSpace=wrap;html=1;fillColor=none;verticalAlign=top;" vertex="1" parent="OhPgFwXRgm67-6-ihN9R-2">
          <mxGeometry x="40" y="40" width="680" height="590" as="geometry" />
        </mxCell>
        <mxCell id="OhPgFwXRgm67-6-ihN9R-4" value="EFS and Backup Process" style="rounded=0;whiteSpace=wrap;html=1;fillColor=none;verticalAlign=top;" vertex="1" parent="OhPgFwXRgm67-6-ihN9R-2">
          <mxGeometry x="760" y="120" width="320" height="480" as="geometry" />
        </mxCell>
        <mxCell id="OhPgFwXRgm67-6-ihN9R-5" value="Amazon EFS" style="sketch=0;points=[[0,0,0],[0.25,0,0],[0.5,0,0],[0.75,0,0],[1,0,0],[0,1,0],[0.25,1,0],[0.5,1,0],[0.75,1,0],[1,1,0],[0,0.25,0],[0,0.5,0],[0,0.75,0],[1,0.25,0],[1,0.5,0],[1,0.75,0]];outlineConnect=0;fontColor=#232F3E;fillColor=#7AA116;strokeColor=#ffffff;dashed=0;verticalLabelPosition=bottom;verticalAlign=top;align=center;html=1;fontSize=12;fontStyle=0;aspect=fixed;shape=mxgraph.aws4.resourceIcon;resIcon=mxgraph.aws4.elastic_file_system;" vertex="1" parent="OhPgFwXRgm67-6-ihN9R-2">
          <mxGeometry x="881" y="160" width="78" height="78" as="geometry" />
        </mxCell>
        <mxCell id="OhPgFwXRgm67-6-ihN9R-27" style="edgeStyle=orthogonalEdgeStyle;rounded=0;orthogonalLoop=1;jettySize=auto;html=1;" edge="1" parent="OhPgFwXRgm67-6-ihN9R-2" source="OhPgFwXRgm67-6-ihN9R-7" target="OhPgFwXRgm67-6-ihN9R-20">
          <mxGeometry relative="1" as="geometry">
            <Array as="points">
              <mxPoint x="839" y="460" />
            </Array>
          </mxGeometry>
        </mxCell>
        <mxCell id="OhPgFwXRgm67-6-ihN9R-28" value="(Restore to)" style="edgeLabel;html=1;align=center;verticalAlign=middle;resizable=0;points=[];" vertex="1" connectable="0" parent="OhPgFwXRgm67-6-ihN9R-27">
          <mxGeometry x="0.3042" y="-1" relative="1" as="geometry">
            <mxPoint as="offset" />
          </mxGeometry>
        </mxCell>
        <mxCell id="OhPgFwXRgm67-6-ihN9R-7" value="AWS Backup" style="sketch=0;points=[[0,0,0],[0.25,0,0],[0.5,0,0],[0.75,0,0],[1,0,0],[0,1,0],[0.25,1,0],[0.5,1,0],[0.75,1,0],[1,1,0],[0,0.25,0],[0,0.5,0],[0,0.75,0],[1,0.25,0],[1,0.5,0],[1,0.75,0]];outlineConnect=0;fontColor=#232F3E;fillColor=#7AA116;strokeColor=#ffffff;dashed=0;verticalLabelPosition=bottom;verticalAlign=top;align=center;html=1;fontSize=12;fontStyle=0;aspect=fixed;shape=mxgraph.aws4.resourceIcon;resIcon=mxgraph.aws4.backup;" vertex="1" parent="OhPgFwXRgm67-6-ihN9R-2">
          <mxGeometry x="800" y="320" width="78" height="78" as="geometry" />
        </mxCell>
        <mxCell id="OhPgFwXRgm67-6-ihN9R-13" style="edgeStyle=orthogonalEdgeStyle;rounded=0;orthogonalLoop=1;jettySize=auto;html=1;" edge="1" parent="OhPgFwXRgm67-6-ihN9R-2" source="OhPgFwXRgm67-6-ihN9R-8" target="OhPgFwXRgm67-6-ihN9R-9">
          <mxGeometry relative="1" as="geometry" />
        </mxCell>
        <mxCell id="OhPgFwXRgm67-6-ihN9R-14" value="(Upload)" style="edgeLabel;html=1;align=center;verticalAlign=middle;resizable=0;points=[];" vertex="1" connectable="0" parent="OhPgFwXRgm67-6-ihN9R-13">
          <mxGeometry x="-0.0488" relative="1" as="geometry">
            <mxPoint as="offset" />
          </mxGeometry>
        </mxCell>
        <mxCell id="OhPgFwXRgm67-6-ihN9R-8" value="ECS Fargate task" style="sketch=0;points=[[0,0,0],[0.25,0,0],[0.5,0,0],[0.75,0,0],[1,0,0],[0,1,0],[0.25,1,0],[0.5,1,0],[0.75,1,0],[1,1,0],[0,0.25,0],[0,0.5,0],[0,0.75,0],[1,0.25,0],[1,0.5,0],[1,0.75,0]];outlineConnect=0;fontColor=#232F3E;fillColor=#ED7100;strokeColor=#ffffff;dashed=0;verticalLabelPosition=bottom;verticalAlign=top;align=center;html=1;fontSize=12;fontStyle=0;aspect=fixed;shape=mxgraph.aws4.resourceIcon;resIcon=mxgraph.aws4.ecs;" vertex="1" parent="OhPgFwXRgm67-6-ihN9R-2">
          <mxGeometry x="959" y="320" width="78" height="78" as="geometry" />
        </mxCell>
        <mxCell id="OhPgFwXRgm67-6-ihN9R-9" value="S3 - Manifests" style="sketch=0;points=[[0,0,0],[0.25,0,0],[0.5,0,0],[0.75,0,0],[1,0,0],[0,1,0],[0.25,1,0],[0.5,1,0],[0.75,1,0],[1,1,0],[0,0.25,0],[0,0.5,0],[0,0.75,0],[1,0.25,0],[1,0.5,0],[1,0.75,0]];outlineConnect=0;fontColor=#232F3E;fillColor=#7AA116;strokeColor=#ffffff;dashed=0;verticalLabelPosition=bottom;verticalAlign=top;align=center;html=1;fontSize=12;fontStyle=0;aspect=fixed;shape=mxgraph.aws4.resourceIcon;resIcon=mxgraph.aws4.s3;" vertex="1" parent="OhPgFwXRgm67-6-ihN9R-2">
          <mxGeometry x="959" y="480" width="78" height="78" as="geometry" />
        </mxCell>
        <mxCell id="OhPgFwXRgm67-6-ihN9R-10" style="edgeStyle=orthogonalEdgeStyle;rounded=0;orthogonalLoop=1;jettySize=auto;html=1;entryX=0.5;entryY=0;entryDx=0;entryDy=0;entryPerimeter=0;" edge="1" parent="OhPgFwXRgm67-6-ihN9R-2" source="OhPgFwXRgm67-6-ihN9R-5" target="OhPgFwXRgm67-6-ihN9R-7">
          <mxGeometry relative="1" as="geometry" />
        </mxCell>
        <mxCell id="OhPgFwXRgm67-6-ihN9R-12" value="(Backup)" style="edgeLabel;html=1;align=center;verticalAlign=middle;resizable=0;points=[];" vertex="1" connectable="0" parent="OhPgFwXRgm67-6-ihN9R-10">
          <mxGeometry x="0.3865" y="-3" relative="1" as="geometry">
            <mxPoint as="offset" />
          </mxGeometry>
        </mxCell>
        <mxCell id="OhPgFwXRgm67-6-ihN9R-11" value="(Generate Menifests)" style="edgeStyle=orthogonalEdgeStyle;rounded=0;orthogonalLoop=1;jettySize=auto;html=1;entryX=0.5;entryY=0;entryDx=0;entryDy=0;entryPerimeter=0;exitX=1;exitY=0.5;exitDx=0;exitDy=0;exitPerimeter=0;" edge="1" parent="OhPgFwXRgm67-6-ihN9R-2" source="OhPgFwXRgm67-6-ihN9R-5" target="OhPgFwXRgm67-6-ihN9R-8">
          <mxGeometry x="0.5" relative="1" as="geometry">
            <mxPoint as="offset" />
          </mxGeometry>
        </mxCell>
        <mxCell id="OhPgFwXRgm67-6-ihN9R-23" style="edgeStyle=orthogonalEdgeStyle;rounded=0;orthogonalLoop=1;jettySize=auto;html=1;" edge="1" parent="OhPgFwXRgm67-6-ihN9R-2" source="OhPgFwXRgm67-6-ihN9R-15" target="OhPgFwXRgm67-6-ihN9R-17">
          <mxGeometry relative="1" as="geometry" />
        </mxCell>
        <mxCell id="OhPgFwXRgm67-6-ihN9R-24" value="(Trigger)" style="edgeLabel;html=1;align=center;verticalAlign=middle;resizable=0;points=[];" vertex="1" connectable="0" parent="OhPgFwXRgm67-6-ihN9R-23">
          <mxGeometry x="0.3208" relative="1" as="geometry">
            <mxPoint as="offset" />
          </mxGeometry>
        </mxCell>
        <mxCell id="OhPgFwXRgm67-6-ihN9R-15" value="" style="sketch=0;points=[[0,0,0],[0.25,0,0],[0.5,0,0],[0.75,0,0],[1,0,0],[0,1,0],[0.25,1,0],[0.5,1,0],[0.75,1,0],[1,1,0],[0,0.25,0],[0,0.5,0],[0,0.75,0],[1,0.25,0],[1,0.5,0],[1,0.75,0]];points=[[0,0,0],[0.25,0,0],[0.5,0,0],[0.75,0,0],[1,0,0],[0,1,0],[0.25,1,0],[0.5,1,0],[0.75,1,0],[1,1,0],[0,0.25,0],[0,0.5,0],[0,0.75,0],[1,0.25,0],[1,0.5,0],[1,0.75,0]];outlineConnect=0;fontColor=#232F3E;fillColor=#E7157B;strokeColor=#ffffff;dashed=0;verticalLabelPosition=bottom;verticalAlign=top;align=center;html=1;fontSize=12;fontStyle=0;aspect=fixed;shape=mxgraph.aws4.resourceIcon;resIcon=mxgraph.aws4.cloudwatch_2;" vertex="1" parent="OhPgFwXRgm67-6-ihN9R-2">
          <mxGeometry x="460" y="82" width="78" height="78" as="geometry" />
        </mxCell>
        <mxCell id="OhPgFwXRgm67-6-ihN9R-16" value="ECS Fargate task" style="sketch=0;points=[[0,0,0],[0.25,0,0],[0.5,0,0],[0.75,0,0],[1,0,0],[0,1,0],[0.25,1,0],[0.5,1,0],[0.75,1,0],[1,1,0],[0,0.25,0],[0,0.5,0],[0,0.75,0],[1,0.25,0],[1,0.5,0],[1,0.75,0]];outlineConnect=0;fontColor=#232F3E;fillColor=#ED7100;strokeColor=#ffffff;dashed=0;verticalLabelPosition=bottom;verticalAlign=top;align=center;html=1;fontSize=12;fontStyle=0;aspect=fixed;shape=mxgraph.aws4.resourceIcon;resIcon=mxgraph.aws4.ecs;" vertex="1" parent="OhPgFwXRgm67-6-ihN9R-2">
          <mxGeometry x="590" y="341" width="78" height="78" as="geometry" />
        </mxCell>
        <mxCell id="OhPgFwXRgm67-6-ihN9R-32" style="edgeStyle=orthogonalEdgeStyle;rounded=0;orthogonalLoop=1;jettySize=auto;html=1;" edge="1" parent="OhPgFwXRgm67-6-ihN9R-2" source="OhPgFwXRgm67-6-ihN9R-17" target="OhPgFwXRgm67-6-ihN9R-16">
          <mxGeometry relative="1" as="geometry">
            <Array as="points">
              <mxPoint x="380" y="360" />
            </Array>
          </mxGeometry>
        </mxCell>
        <mxCell id="OhPgFwXRgm67-6-ihN9R-33" value="(Run Task)" style="edgeLabel;html=1;align=center;verticalAlign=middle;resizable=0;points=[];" vertex="1" connectable="0" parent="OhPgFwXRgm67-6-ihN9R-32">
          <mxGeometry x="0.1438" y="2" relative="1" as="geometry">
            <mxPoint x="25" y="1" as="offset" />
          </mxGeometry>
        </mxCell>
        <mxCell id="OhPgFwXRgm67-6-ihN9R-36" style="edgeStyle=orthogonalEdgeStyle;rounded=0;orthogonalLoop=1;jettySize=auto;html=1;" edge="1" parent="OhPgFwXRgm67-6-ihN9R-2" source="OhPgFwXRgm67-6-ihN9R-17" target="OhPgFwXRgm67-6-ihN9R-18">
          <mxGeometry relative="1" as="geometry" />
        </mxCell>
        <mxCell id="OhPgFwXRgm67-6-ihN9R-42" value="(Report&amp;nbsp;&lt;div&gt;Discrepancies/Success)&lt;/div&gt;" style="edgeLabel;html=1;align=center;verticalAlign=middle;resizable=0;points=[];" vertex="1" connectable="0" parent="OhPgFwXRgm67-6-ihN9R-36">
          <mxGeometry x="0.4904" y="-3" relative="1" as="geometry">
            <mxPoint as="offset" />
          </mxGeometry>
        </mxCell>
        <mxCell id="OhPgFwXRgm67-6-ihN9R-37" style="edgeStyle=orthogonalEdgeStyle;rounded=0;orthogonalLoop=1;jettySize=auto;html=1;" edge="1" parent="OhPgFwXRgm67-6-ihN9R-2" source="OhPgFwXRgm67-6-ihN9R-17" target="OhPgFwXRgm67-6-ihN9R-19">
          <mxGeometry relative="1" as="geometry" />
        </mxCell>
        <mxCell id="OhPgFwXRgm67-6-ihN9R-41" value="(Alert on Discrepancies)&amp;nbsp;" style="edgeLabel;html=1;align=center;verticalAlign=middle;resizable=0;points=[];" vertex="1" connectable="0" parent="OhPgFwXRgm67-6-ihN9R-37">
          <mxGeometry x="0.5249" relative="1" as="geometry">
            <mxPoint as="offset" />
          </mxGeometry>
        </mxCell>
        <mxCell id="OhPgFwXRgm67-6-ihN9R-17" value="" style="sketch=0;points=[[0,0,0],[0.25,0,0],[0.5,0,0],[0.75,0,0],[1,0,0],[0,1,0],[0.25,1,0],[0.5,1,0],[0.75,1,0],[1,1,0],[0,0.25,0],[0,0.5,0],[0,0.75,0],[1,0.25,0],[1,0.5,0],[1,0.75,0]];outlineConnect=0;fontColor=#232F3E;fillColor=#ED7100;strokeColor=#ffffff;dashed=0;verticalLabelPosition=bottom;verticalAlign=top;align=center;html=1;fontSize=12;fontStyle=0;aspect=fixed;shape=mxgraph.aws4.resourceIcon;resIcon=mxgraph.aws4.lambda;" vertex="1" parent="OhPgFwXRgm67-6-ihN9R-2">
          <mxGeometry x="341" y="200" width="78" height="78" as="geometry" />
        </mxCell>
        <mxCell id="OhPgFwXRgm67-6-ihN9R-18" value="Cloudwatch Logs" style="sketch=0;outlineConnect=0;fontColor=#232F3E;gradientColor=none;fillColor=#E7157B;strokeColor=none;dashed=0;verticalLabelPosition=bottom;verticalAlign=top;align=center;html=1;fontSize=12;fontStyle=0;aspect=fixed;pointerEvents=1;shape=mxgraph.aws4.cloudwatch_logs;" vertex="1" parent="OhPgFwXRgm67-6-ihN9R-2">
          <mxGeometry x="80" y="398" width="78" height="58" as="geometry" />
        </mxCell>
        <mxCell id="OhPgFwXRgm67-6-ihN9R-19" value="SNS - Alerts" style="sketch=0;points=[[0,0,0],[0.25,0,0],[0.5,0,0],[0.75,0,0],[1,0,0],[0,1,0],[0.25,1,0],[0.5,1,0],[0.75,1,0],[1,1,0],[0,0.25,0],[0,0.5,0],[0,0.75,0],[1,0.25,0],[1,0.5,0],[1,0.75,0]];outlineConnect=0;fontColor=#232F3E;fillColor=#E7157B;strokeColor=#ffffff;dashed=0;verticalLabelPosition=bottom;verticalAlign=top;align=center;html=1;fontSize=12;fontStyle=0;aspect=fixed;shape=mxgraph.aws4.resourceIcon;resIcon=mxgraph.aws4.sns;" vertex="1" parent="OhPgFwXRgm67-6-ihN9R-2">
          <mxGeometry x="200" y="398" width="78" height="78" as="geometry" />
        </mxCell>
        <mxCell id="OhPgFwXRgm67-6-ihN9R-20" value="Amazon EFS&amp;nbsp;&lt;div&gt;(temporary)&lt;/div&gt;" style="sketch=0;points=[[0,0,0],[0.25,0,0],[0.5,0,0],[0.75,0,0],[1,0,0],[0,1,0],[0.25,1,0],[0.5,1,0],[0.75,1,0],[1,1,0],[0,0.25,0],[0,0.5,0],[0,0.75,0],[1,0.25,0],[1,0.5,0],[1,0.75,0]];outlineConnect=0;fontColor=#232F3E;fillColor=#7AA116;strokeColor=#ffffff;dashed=0;verticalLabelPosition=bottom;verticalAlign=top;align=center;html=1;fontSize=12;fontStyle=0;aspect=fixed;shape=mxgraph.aws4.resourceIcon;resIcon=mxgraph.aws4.elastic_file_system;" vertex="1" parent="OhPgFwXRgm67-6-ihN9R-2">
          <mxGeometry x="320" y="398" width="78" height="78" as="geometry" />
        </mxCell>
        <mxCell id="OhPgFwXRgm67-6-ihN9R-21" style="edgeStyle=orthogonalEdgeStyle;rounded=0;orthogonalLoop=1;jettySize=auto;html=1;entryX=1;entryY=0.5;entryDx=0;entryDy=0;entryPerimeter=0;exitX=0.25;exitY=0;exitDx=0;exitDy=0;exitPerimeter=0;" edge="1" parent="OhPgFwXRgm67-6-ihN9R-2" source="OhPgFwXRgm67-6-ihN9R-7" target="OhPgFwXRgm67-6-ihN9R-15">
          <mxGeometry relative="1" as="geometry">
            <Array as="points">
              <mxPoint x="820" y="290" />
              <mxPoint x="690" y="290" />
              <mxPoint x="690" y="121" />
            </Array>
          </mxGeometry>
        </mxCell>
        <mxCell id="OhPgFwXRgm67-6-ihN9R-22" value="(Events)" style="edgeLabel;html=1;align=center;verticalAlign=middle;resizable=0;points=[];" vertex="1" connectable="0" parent="OhPgFwXRgm67-6-ihN9R-21">
          <mxGeometry x="0.0468" y="3" relative="1" as="geometry">
            <mxPoint as="offset" />
          </mxGeometry>
        </mxCell>
        <mxCell id="OhPgFwXRgm67-6-ihN9R-25" style="edgeStyle=orthogonalEdgeStyle;rounded=0;orthogonalLoop=1;jettySize=auto;html=1;" edge="1" parent="OhPgFwXRgm67-6-ihN9R-2" source="OhPgFwXRgm67-6-ihN9R-17">
          <mxGeometry relative="1" as="geometry">
            <mxPoint x="800" y="320" as="targetPoint" />
            <Array as="points">
              <mxPoint x="610" y="239" />
              <mxPoint x="610" y="320" />
              <mxPoint x="800" y="320" />
            </Array>
          </mxGeometry>
        </mxCell>
        <mxCell id="OhPgFwXRgm67-6-ihN9R-26" value="(Restore)" style="edgeLabel;html=1;align=center;verticalAlign=middle;resizable=0;points=[];" vertex="1" connectable="0" parent="OhPgFwXRgm67-6-ihN9R-25">
          <mxGeometry x="-0.481" relative="1" as="geometry">
            <mxPoint as="offset" />
          </mxGeometry>
        </mxCell>
        <mxCell id="OhPgFwXRgm67-6-ihN9R-29" style="edgeStyle=orthogonalEdgeStyle;rounded=0;orthogonalLoop=1;jettySize=auto;html=1;entryX=0;entryY=0.5;entryDx=0;entryDy=0;entryPerimeter=0;" edge="1" parent="OhPgFwXRgm67-6-ihN9R-2" source="OhPgFwXRgm67-6-ihN9R-16" target="OhPgFwXRgm67-6-ihN9R-9">
          <mxGeometry relative="1" as="geometry">
            <Array as="points">
              <mxPoint x="629" y="520" />
              <mxPoint x="814" y="520" />
              <mxPoint x="814" y="519" />
            </Array>
          </mxGeometry>
        </mxCell>
        <mxCell id="OhPgFwXRgm67-6-ihN9R-31" value="(Upload)" style="edgeLabel;html=1;align=center;verticalAlign=middle;resizable=0;points=[];" vertex="1" connectable="0" parent="OhPgFwXRgm67-6-ihN9R-29">
          <mxGeometry x="0.375" relative="1" as="geometry">
            <mxPoint as="offset" />
          </mxGeometry>
        </mxCell>
        <mxCell id="OhPgFwXRgm67-6-ihN9R-34" style="edgeStyle=orthogonalEdgeStyle;rounded=0;orthogonalLoop=1;jettySize=auto;html=1;entryX=0;entryY=0.75;entryDx=0;entryDy=0;entryPerimeter=0;" edge="1" parent="OhPgFwXRgm67-6-ihN9R-2" source="OhPgFwXRgm67-6-ihN9R-17" target="OhPgFwXRgm67-6-ihN9R-9">
          <mxGeometry relative="1" as="geometry">
            <Array as="points">
              <mxPoint x="440" y="239" />
              <mxPoint x="440" y="539" />
            </Array>
          </mxGeometry>
        </mxCell>
        <mxCell id="OhPgFwXRgm67-6-ihN9R-35" value="(Download)" style="edgeLabel;html=1;align=center;verticalAlign=middle;resizable=0;points=[];" vertex="1" connectable="0" parent="OhPgFwXRgm67-6-ihN9R-34">
          <mxGeometry x="0.0637" relative="1" as="geometry">
            <mxPoint x="1" y="1" as="offset" />
          </mxGeometry>
        </mxCell>
        <mxCell id="OhPgFwXRgm67-6-ihN9R-39" style="edgeStyle=orthogonalEdgeStyle;rounded=0;orthogonalLoop=1;jettySize=auto;html=1;entryX=0.5;entryY=0;entryDx=0;entryDy=0;entryPerimeter=0;" edge="1" parent="OhPgFwXRgm67-6-ihN9R-2" source="OhPgFwXRgm67-6-ihN9R-17" target="OhPgFwXRgm67-6-ihN9R-20">
          <mxGeometry relative="1" as="geometry">
            <Array as="points">
              <mxPoint x="360" y="338" />
              <mxPoint x="359" y="338" />
            </Array>
          </mxGeometry>
        </mxCell>
        <mxCell id="OhPgFwXRgm67-6-ihN9R-40" value="(Cleanup)" style="edgeLabel;html=1;align=center;verticalAlign=middle;resizable=0;points=[];" vertex="1" connectable="0" parent="OhPgFwXRgm67-6-ihN9R-39">
          <mxGeometry x="0.4876" y="-3" relative="1" as="geometry">
            <mxPoint as="offset" />
          </mxGeometry>
        </mxCell>
        <mxCell id="OhPgFwXRgm67-6-ihN9R-43" style="edgeStyle=orthogonalEdgeStyle;rounded=0;orthogonalLoop=1;jettySize=auto;html=1;entryX=0;entryY=0;entryDx=0;entryDy=0;entryPerimeter=0;" edge="1" parent="OhPgFwXRgm67-6-ihN9R-2" source="OhPgFwXRgm67-6-ihN9R-17" target="OhPgFwXRgm67-6-ihN9R-16">
          <mxGeometry relative="1" as="geometry">
            <Array as="points">
              <mxPoint x="590" y="270" />
            </Array>
          </mxGeometry>
        </mxCell>
        <mxCell id="OhPgFwXRgm67-6-ihN9R-44" value="(Cleanup)" style="edgeLabel;html=1;align=center;verticalAlign=middle;resizable=0;points=[];" vertex="1" connectable="0" parent="OhPgFwXRgm67-6-ihN9R-43">
          <mxGeometry x="-0.3884" y="1" relative="1" as="geometry">
            <mxPoint as="offset" />
          </mxGeometry>
        </mxCell>
      </root>
    </mxGraphModel>
  </diagram>
</mxfile>
